<mxfile host="app.diagrams.net" modified="2024-05-11T10:20:18.956Z" agent="Mozilla/5.0 (Macintosh; Intel Mac OS X 10_15_7) AppleWebKit/537.36 (KHTML, like Gecko) Chrome/124.0.0.0 Safari/537.36" etag="ojWBn39xtT4PoSBGb0kH" version="24.3.1" type="github">
  <diagram name="Page-1" id="4h4YWnUBP4NQwhYzD0En">
    <mxGraphModel dx="2070" dy="2211" grid="1" gridSize="10" guides="1" tooltips="1" connect="1" arrows="1" fold="1" page="1" pageScale="1" pageWidth="850" pageHeight="1100" math="0" shadow="0">
      <root>
        <mxCell id="0" />
        <mxCell id="1" parent="0" />
        <mxCell id="g2qSnwkEiyNhfkVw8sni-3" value="" style="endArrow=none;html=1;rounded=0;strokeColor=#3399FF;strokeWidth=5;endSize=10;startSize=10;" parent="1" edge="1">
          <mxGeometry width="50" height="50" relative="1" as="geometry">
            <mxPoint x="120" y="400" as="sourcePoint" />
            <mxPoint x="120" y="320" as="targetPoint" />
          </mxGeometry>
        </mxCell>
        <mxCell id="g2qSnwkEiyNhfkVw8sni-4" value="" style="endArrow=none;html=1;rounded=0;strokeWidth=5;strokeColor=#007FFF;" parent="1" edge="1">
          <mxGeometry width="50" height="50" relative="1" as="geometry">
            <mxPoint x="120" y="400" as="sourcePoint" />
            <mxPoint x="760" y="400" as="targetPoint" />
          </mxGeometry>
        </mxCell>
        <mxCell id="g2qSnwkEiyNhfkVw8sni-11" value="" style="endArrow=none;html=1;rounded=0;strokeColor=#3399FF;strokeWidth=5;endSize=10;startSize=10;" parent="1" edge="1">
          <mxGeometry width="50" height="50" relative="1" as="geometry">
            <mxPoint x="760" y="400" as="sourcePoint" />
            <mxPoint x="760" y="320" as="targetPoint" />
          </mxGeometry>
        </mxCell>
        <mxCell id="g2qSnwkEiyNhfkVw8sni-28" value="" style="shape=crossbar;whiteSpace=wrap;html=1;rounded=1;" parent="1" vertex="1">
          <mxGeometry x="120" y="230" width="640" height="20" as="geometry" />
        </mxCell>
        <mxCell id="g2qSnwkEiyNhfkVw8sni-30" value="" style="verticalLabelPosition=bottom;verticalAlign=top;html=1;shape=mxgraph.basic.flash" parent="1" vertex="1">
          <mxGeometry x="230" y="360" width="10" height="40" as="geometry" />
        </mxCell>
        <mxCell id="g2qSnwkEiyNhfkVw8sni-31" value="" style="verticalLabelPosition=bottom;verticalAlign=top;html=1;shape=mxgraph.basic.flash" parent="1" vertex="1">
          <mxGeometry x="310" y="360" width="10" height="40" as="geometry" />
        </mxCell>
        <mxCell id="g2qSnwkEiyNhfkVw8sni-32" value="" style="verticalLabelPosition=bottom;verticalAlign=top;html=1;shape=mxgraph.basic.flash" parent="1" vertex="1">
          <mxGeometry x="400" y="360" width="10" height="40" as="geometry" />
        </mxCell>
        <mxCell id="g2qSnwkEiyNhfkVw8sni-33" value="" style="verticalLabelPosition=bottom;verticalAlign=top;html=1;shape=mxgraph.basic.flash" parent="1" vertex="1">
          <mxGeometry x="470" y="360" width="10" height="40" as="geometry" />
        </mxCell>
        <mxCell id="g2qSnwkEiyNhfkVw8sni-34" value="" style="verticalLabelPosition=bottom;verticalAlign=top;html=1;shape=mxgraph.basic.flash" parent="1" vertex="1">
          <mxGeometry x="560" y="360" width="10" height="40" as="geometry" />
        </mxCell>
        <mxCell id="g2qSnwkEiyNhfkVw8sni-35" value="" style="verticalLabelPosition=bottom;verticalAlign=top;html=1;shape=mxgraph.basic.flash" parent="1" vertex="1">
          <mxGeometry x="640" y="360" width="10" height="40" as="geometry" />
        </mxCell>
        <mxCell id="g2qSnwkEiyNhfkVw8sni-38" value="" style="verticalLabelPosition=bottom;verticalAlign=top;html=1;shape=mxgraph.basic.flash" parent="1" vertex="1">
          <mxGeometry x="155" y="360" width="10" height="40" as="geometry" />
        </mxCell>
        <mxCell id="g2qSnwkEiyNhfkVw8sni-40" value="" style="verticalLabelPosition=bottom;verticalAlign=top;html=1;shape=mxgraph.basic.flash" parent="1" vertex="1">
          <mxGeometry x="715" y="360" width="10" height="40" as="geometry" />
        </mxCell>
        <mxCell id="g2qSnwkEiyNhfkVw8sni-47" value="" style="endArrow=classic;html=1;rounded=0;" parent="1" edge="1">
          <mxGeometry width="50" height="50" relative="1" as="geometry">
            <mxPoint x="760" y="320" as="sourcePoint" />
            <mxPoint x="800" y="400" as="targetPoint" />
          </mxGeometry>
        </mxCell>
        <mxCell id="g2qSnwkEiyNhfkVw8sni-48" value="" style="endArrow=classic;html=1;rounded=0;" parent="1" edge="1">
          <mxGeometry width="50" height="50" relative="1" as="geometry">
            <mxPoint x="120" y="320" as="sourcePoint" />
            <mxPoint x="80" y="400" as="targetPoint" />
          </mxGeometry>
        </mxCell>
        <mxCell id="g2qSnwkEiyNhfkVw8sni-49" value="48&#39;" style="text;strokeColor=none;fillColor=none;html=1;fontSize=24;fontStyle=1;verticalAlign=middle;align=center;" parent="1" vertex="1">
          <mxGeometry x="380" y="200" width="100" height="40" as="geometry" />
        </mxCell>
        <mxCell id="g2qSnwkEiyNhfkVw8sni-50" value="" style="endArrow=none;html=1;rounded=0;strokeColor=#3399FF;strokeWidth=5;endSize=10;startSize=10;" parent="1" edge="1">
          <mxGeometry width="50" height="50" relative="1" as="geometry">
            <mxPoint x="120" y="600" as="sourcePoint" />
            <mxPoint x="120" y="520" as="targetPoint" />
          </mxGeometry>
        </mxCell>
        <mxCell id="g2qSnwkEiyNhfkVw8sni-51" value="" style="endArrow=none;html=1;rounded=0;strokeWidth=5;strokeColor=#007FFF;" parent="1" edge="1">
          <mxGeometry width="50" height="50" relative="1" as="geometry">
            <mxPoint x="120" y="600" as="sourcePoint" />
            <mxPoint x="760" y="600" as="targetPoint" />
          </mxGeometry>
        </mxCell>
        <mxCell id="g2qSnwkEiyNhfkVw8sni-52" value="" style="endArrow=none;html=1;rounded=0;strokeColor=#3399FF;strokeWidth=5;endSize=10;startSize=10;" parent="1" edge="1">
          <mxGeometry width="50" height="50" relative="1" as="geometry">
            <mxPoint x="360" y="600" as="sourcePoint" />
            <mxPoint x="360" y="520" as="targetPoint" />
          </mxGeometry>
        </mxCell>
        <mxCell id="g2qSnwkEiyNhfkVw8sni-53" value="" style="endArrow=none;html=1;rounded=0;strokeColor=#3399FF;strokeWidth=5;endSize=10;startSize=10;" parent="1" edge="1">
          <mxGeometry width="50" height="50" relative="1" as="geometry">
            <mxPoint x="520" y="600" as="sourcePoint" />
            <mxPoint x="520" y="520" as="targetPoint" />
          </mxGeometry>
        </mxCell>
        <mxCell id="g2qSnwkEiyNhfkVw8sni-54" value="" style="endArrow=none;html=1;rounded=0;strokeColor=#3399FF;strokeWidth=5;endSize=10;startSize=10;" parent="1" edge="1">
          <mxGeometry width="50" height="50" relative="1" as="geometry">
            <mxPoint x="680" y="600" as="sourcePoint" />
            <mxPoint x="680" y="520" as="targetPoint" />
          </mxGeometry>
        </mxCell>
        <mxCell id="g2qSnwkEiyNhfkVw8sni-55" value="" style="endArrow=none;html=1;rounded=0;strokeColor=#3399FF;strokeWidth=5;endSize=10;startSize=10;" parent="1" edge="1">
          <mxGeometry width="50" height="50" relative="1" as="geometry">
            <mxPoint x="760" y="600" as="sourcePoint" />
            <mxPoint x="760" y="520" as="targetPoint" />
          </mxGeometry>
        </mxCell>
        <mxCell id="g2qSnwkEiyNhfkVw8sni-56" value="" style="endArrow=none;html=1;rounded=0;strokeColor=#3399FF;strokeWidth=5;endSize=10;startSize=10;" parent="1" edge="1">
          <mxGeometry width="50" height="50" relative="1" as="geometry">
            <mxPoint x="200" y="600" as="sourcePoint" />
            <mxPoint x="200" y="520" as="targetPoint" />
          </mxGeometry>
        </mxCell>
        <mxCell id="g2qSnwkEiyNhfkVw8sni-57" value="6&#39;" style="text;html=1;align=center;verticalAlign=middle;whiteSpace=wrap;rounded=0;" parent="1" vertex="1">
          <mxGeometry x="130" y="500" width="60" height="30" as="geometry" />
        </mxCell>
        <mxCell id="g2qSnwkEiyNhfkVw8sni-58" value="6&#39;" style="text;html=1;align=center;verticalAlign=middle;whiteSpace=wrap;rounded=0;" parent="1" vertex="1">
          <mxGeometry x="690" y="500" width="60" height="30" as="geometry" />
        </mxCell>
        <mxCell id="g2qSnwkEiyNhfkVw8sni-59" value="12&#39;" style="text;html=1;align=center;verticalAlign=middle;whiteSpace=wrap;rounded=0;" parent="1" vertex="1">
          <mxGeometry x="570" y="500" width="60" height="30" as="geometry" />
        </mxCell>
        <mxCell id="g2qSnwkEiyNhfkVw8sni-60" value="12&#39;" style="text;html=1;align=center;verticalAlign=middle;whiteSpace=wrap;rounded=0;" parent="1" vertex="1">
          <mxGeometry x="410" y="500" width="60" height="30" as="geometry" />
        </mxCell>
        <mxCell id="g2qSnwkEiyNhfkVw8sni-61" value="12&#39;" style="text;html=1;align=center;verticalAlign=middle;whiteSpace=wrap;rounded=0;" parent="1" vertex="1">
          <mxGeometry x="250" y="500" width="60" height="30" as="geometry" />
        </mxCell>
        <mxCell id="g2qSnwkEiyNhfkVw8sni-62" value="" style="verticalLabelPosition=bottom;verticalAlign=top;html=1;shape=mxgraph.basic.flash" parent="1" vertex="1">
          <mxGeometry x="230" y="560" width="10" height="40" as="geometry" />
        </mxCell>
        <mxCell id="g2qSnwkEiyNhfkVw8sni-63" value="" style="verticalLabelPosition=bottom;verticalAlign=top;html=1;shape=mxgraph.basic.flash" parent="1" vertex="1">
          <mxGeometry x="310" y="560" width="10" height="40" as="geometry" />
        </mxCell>
        <mxCell id="g2qSnwkEiyNhfkVw8sni-64" value="" style="verticalLabelPosition=bottom;verticalAlign=top;html=1;shape=mxgraph.basic.flash" parent="1" vertex="1">
          <mxGeometry x="400" y="560" width="10" height="40" as="geometry" />
        </mxCell>
        <mxCell id="g2qSnwkEiyNhfkVw8sni-65" value="" style="verticalLabelPosition=bottom;verticalAlign=top;html=1;shape=mxgraph.basic.flash" parent="1" vertex="1">
          <mxGeometry x="470" y="560" width="10" height="40" as="geometry" />
        </mxCell>
        <mxCell id="g2qSnwkEiyNhfkVw8sni-66" value="" style="verticalLabelPosition=bottom;verticalAlign=top;html=1;shape=mxgraph.basic.flash" parent="1" vertex="1">
          <mxGeometry x="560" y="560" width="10" height="40" as="geometry" />
        </mxCell>
        <mxCell id="g2qSnwkEiyNhfkVw8sni-67" value="" style="verticalLabelPosition=bottom;verticalAlign=top;html=1;shape=mxgraph.basic.flash" parent="1" vertex="1">
          <mxGeometry x="640" y="560" width="10" height="40" as="geometry" />
        </mxCell>
        <mxCell id="g2qSnwkEiyNhfkVw8sni-68" value="" style="verticalLabelPosition=bottom;verticalAlign=top;html=1;shape=mxgraph.basic.flash" parent="1" vertex="1">
          <mxGeometry x="155" y="560" width="10" height="40" as="geometry" />
        </mxCell>
        <mxCell id="g2qSnwkEiyNhfkVw8sni-69" value="" style="verticalLabelPosition=bottom;verticalAlign=top;html=1;shape=mxgraph.basic.flash" parent="1" vertex="1">
          <mxGeometry x="715" y="560" width="10" height="40" as="geometry" />
        </mxCell>
        <mxCell id="g2qSnwkEiyNhfkVw8sni-70" value="" style="endArrow=classic;html=1;rounded=0;" parent="1" edge="1">
          <mxGeometry width="50" height="50" relative="1" as="geometry">
            <mxPoint x="760" y="520" as="sourcePoint" />
            <mxPoint x="800" y="600" as="targetPoint" />
          </mxGeometry>
        </mxCell>
        <mxCell id="g2qSnwkEiyNhfkVw8sni-71" value="" style="endArrow=classic;html=1;rounded=0;" parent="1" edge="1">
          <mxGeometry width="50" height="50" relative="1" as="geometry">
            <mxPoint x="120" y="520" as="sourcePoint" />
            <mxPoint x="80" y="600" as="targetPoint" />
          </mxGeometry>
        </mxCell>
        <mxCell id="g2qSnwkEiyNhfkVw8sni-72" value="" style="shape=crossbar;whiteSpace=wrap;html=1;rounded=1;rotation=90;" parent="1" vertex="1">
          <mxGeometry x="640" y="490" width="200" height="20" as="geometry" />
        </mxCell>
        <mxCell id="g2qSnwkEiyNhfkVw8sni-73" value="6&#39;" style="text;strokeColor=none;fillColor=none;html=1;fontSize=24;fontStyle=1;verticalAlign=middle;align=center;" parent="1" vertex="1">
          <mxGeometry x="715" y="460" width="100" height="40" as="geometry" />
        </mxCell>
        <mxCell id="T3IbQ0xO3eU9MWDVorcG-2" value="&lt;font style=&quot;font-size: 18px;&quot;&gt;Each Square is 3 feet&lt;/font&gt;&lt;div&gt;&lt;font style=&quot;font-size: 18px;&quot;&gt;16 vines per row&lt;/font&gt;&lt;/div&gt;&lt;div&gt;&lt;font style=&quot;font-size: 18px;&quot;&gt;20 rows total&lt;/font&gt;&lt;/div&gt;&lt;div&gt;&lt;font style=&quot;font-size: 18px;&quot;&gt;total area 48&#39;x120&#39;&lt;/font&gt;&lt;/div&gt;&lt;div&gt;&lt;font style=&quot;font-size: 18px;&quot;&gt;&lt;br&gt;&lt;/font&gt;&lt;/div&gt;" style="text;html=1;align=center;verticalAlign=middle;whiteSpace=wrap;rounded=0;" vertex="1" parent="1">
          <mxGeometry x="313" y="20" width="225" height="30" as="geometry" />
        </mxCell>
        <mxCell id="T3IbQ0xO3eU9MWDVorcG-3" value="" style="verticalLabelPosition=bottom;verticalAlign=top;html=1;shape=mxgraph.basic.flash" vertex="1" parent="1">
          <mxGeometry x="195" y="360" width="10" height="40" as="geometry" />
        </mxCell>
        <mxCell id="T3IbQ0xO3eU9MWDVorcG-4" value="" style="verticalLabelPosition=bottom;verticalAlign=top;html=1;shape=mxgraph.basic.flash" vertex="1" parent="1">
          <mxGeometry x="274" y="361" width="10" height="40" as="geometry" />
        </mxCell>
        <mxCell id="T3IbQ0xO3eU9MWDVorcG-5" value="" style="verticalLabelPosition=bottom;verticalAlign=top;html=1;shape=mxgraph.basic.flash" vertex="1" parent="1">
          <mxGeometry x="360" y="360" width="10" height="40" as="geometry" />
        </mxCell>
        <mxCell id="T3IbQ0xO3eU9MWDVorcG-6" value="" style="verticalLabelPosition=bottom;verticalAlign=top;html=1;shape=mxgraph.basic.flash" vertex="1" parent="1">
          <mxGeometry x="435" y="360" width="10" height="40" as="geometry" />
        </mxCell>
        <mxCell id="T3IbQ0xO3eU9MWDVorcG-7" value="" style="verticalLabelPosition=bottom;verticalAlign=top;html=1;shape=mxgraph.basic.flash" vertex="1" parent="1">
          <mxGeometry x="520" y="360" width="10" height="40" as="geometry" />
        </mxCell>
        <mxCell id="T3IbQ0xO3eU9MWDVorcG-8" value="" style="verticalLabelPosition=bottom;verticalAlign=top;html=1;shape=mxgraph.basic.flash" vertex="1" parent="1">
          <mxGeometry x="595" y="360" width="10" height="40" as="geometry" />
        </mxCell>
        <mxCell id="T3IbQ0xO3eU9MWDVorcG-9" value="" style="verticalLabelPosition=bottom;verticalAlign=top;html=1;shape=mxgraph.basic.flash" vertex="1" parent="1">
          <mxGeometry x="670" y="360" width="10" height="40" as="geometry" />
        </mxCell>
      </root>
    </mxGraphModel>
  </diagram>
</mxfile>
